<svg width="24" height="24" viewBox="0 0 24 24" fill="none" xmlns="http://www.w3.org/2000/svg">
<path d="M5.67519 22.4059C5.88612 22.2934 6.50019 21.6419 6.58925 21.4356C6.74394 21.0794 6.608 20.7091 6.1955 20.3434L5.933 20.1091L6.44862 19.5841C6.72987 19.2934 7.33456 18.67 7.79394 18.1966L8.633 17.3388L9.12987 17.8075C9.40644 18.0653 9.77675 18.4263 9.95956 18.6091C10.4517 19.1153 10.6017 19.1716 10.8314 18.9419C11.0752 18.6981 11.033 18.5997 10.4705 18.0559L9.97362 17.5778L10.3955 17.1184C10.6299 16.87 10.9908 16.495 11.2017 16.2888C11.4127 16.0825 11.7549 15.7309 11.9611 15.5013L12.3361 15.0934L11.4408 14.2216C10.6767 13.4763 10.5455 13.3309 10.5455 13.2091C10.5455 13.1341 10.5642 13.0356 10.5924 12.9888C10.658 12.8622 10.8783 12.7825 11.0189 12.8341C11.0799 12.8622 11.5158 13.2513 11.9846 13.7059C12.4486 14.1606 12.8517 14.5309 12.8752 14.5309C12.9174 14.5309 14.5767 12.82 14.5767 12.7778C14.5767 12.7638 14.1736 12.3559 13.6861 11.8731C12.908 11.1044 12.7955 10.9731 12.7955 10.8466C12.7955 10.6591 12.9783 10.4856 13.1705 10.4903C13.2877 10.495 13.4142 10.5888 13.8174 10.9638C14.0939 11.2216 14.4971 11.6106 14.7174 11.8309L15.1158 12.2341L15.5049 11.8497C15.7205 11.6341 16.1096 11.2309 16.3674 10.9544L16.8408 10.4481L16.1705 9.77313C15.5283 9.12157 15.5049 9.08876 15.533 8.94345C15.5705 8.75126 15.7158 8.6247 15.908 8.6247C16.0299 8.6247 16.1564 8.71845 16.7283 9.26688L17.4033 9.90907L17.8861 9.39813C18.158 9.1122 18.4111 8.82157 18.4533 8.74188C18.5471 8.56845 18.5517 8.19345 18.4533 8.04813C18.308 7.82313 15.9314 5.55438 15.758 5.4747C15.5471 5.37626 15.3736 5.37157 15.1721 5.45595C15.0736 5.49345 13.4939 7.0872 10.7846 9.88563L6.54706 14.2497L6.06425 13.7809C5.63769 13.3638 5.56269 13.3122 5.41737 13.3122C5.15956 13.3122 5.03769 13.4669 5.05644 13.7575C5.06112 13.8138 5.42675 14.2028 5.94237 14.6997L6.81425 15.5481L6.68769 15.7075C6.62206 15.7966 6.01737 16.4247 5.34706 17.1091L4.12831 18.3513L3.85644 18.0841C3.47206 17.7044 3.16269 17.5966 2.82519 17.7231C2.68925 17.77 2.08456 18.3419 1.91112 18.5763C1.77519 18.7684 1.72831 19.0169 1.78925 19.2559C1.83144 19.4294 1.958 19.5747 2.75956 20.3575C5.01425 22.5653 4.93925 22.4997 5.30487 22.4997C5.41737 22.495 5.58144 22.4528 5.67519 22.4059ZM5.02831 19.2091L4.69081 18.8669L6.00331 17.5075C6.72519 16.7622 7.33456 16.1434 7.358 16.1341C7.38144 16.1247 7.55956 16.2747 7.75175 16.4622L8.108 16.8044L6.78144 18.1684C6.05487 18.9231 5.43612 19.5372 5.41269 19.5419C5.38456 19.5466 5.21112 19.3919 5.02831 19.2091Z" fill="#295597"/>
<path d="M18.8391 6.94366C18.975 6.62491 18.9703 6.28273 18.8203 5.96398C18.7547 5.82335 18.7031 5.70148 18.7031 5.68741C18.7031 5.67335 19.3734 4.97491 20.1891 4.13585C22.2375 2.02648 22.2187 2.04991 22.2187 1.89054C22.2141 1.66085 21.9891 1.47335 21.7734 1.5296C21.7031 1.54835 21.0703 2.16241 20.1516 3.11398C19.3219 3.9671 18.5297 4.77804 18.3937 4.91866L18.15 5.17179L17.925 5.05929C17.6203 4.90929 17.175 4.90929 16.8844 5.0546C16.7766 5.11554 16.6875 5.17648 16.6875 5.19991C16.6875 5.24679 18.6609 7.17335 18.7078 7.17335C18.7266 7.17335 18.7828 7.07023 18.8391 6.94366Z" fill="#295597"/>
</svg>
