<svg width="24" height="24" viewBox="0 0 24 24" fill="none" xmlns="http://www.w3.org/2000/svg">
<g clip-path="url(#clip0_660_5)">
<path d="M12 22C13.1033 22 14.006 21.0769 14.006 19.9487H9.99398C9.99398 21.0769 10.8967 22 12 22ZM18.0181 15.8462V10.7179C18.0181 7.56923 16.3832 4.93333 13.5045 4.2359V3.53846C13.5045 2.68718 12.8325 2 12 2C11.1675 2 10.4955 2.68718 10.4955 3.53846V4.2359C7.62688 4.93333 5.98195 7.55897 5.98195 10.7179V15.8462L3.97593 17.8974V18.9231H20.0241V17.8974L18.0181 15.8462ZM16.012 16.8718H7.98796V10.7179C7.98796 8.17436 9.50251 6.10256 12 6.10256C14.4975 6.10256 16.012 8.17436 16.012 10.7179V16.8718ZM7.5667 3.62051L6.1324 2.15385C3.72518 4.03077 2.14042 6.92308 2 10.2051H4.00602C4.07707 8.90442 4.43413 7.63686 5.05062 6.49681C5.66711 5.35676 6.52715 4.37359 7.5667 3.62051ZM19.994 10.2051H22C21.8495 6.92308 20.2648 4.03077 17.8676 2.15385L16.4433 3.62051C17.4784 4.3773 18.3346 5.36155 18.9491 6.50099C19.5635 7.64043 19.9205 8.90612 19.994 10.2051Z" fill="#295597"/>
</g>
<defs>
<clipPath id="clip0_660_5">
<rect width="20" height="20" fill="white" transform="translate(2 2)"/>
</clipPath>
</defs>
</svg>
