<svg width="48" height="48" viewBox="0 0 48 48" fill="none" xmlns="http://www.w3.org/2000/svg">
<path d="M9.86585 4.13983C9.22317 4.32516 8.53902 4.90065 8.24878 5.49565L8 5.99311V23.9894V41.9858L8.24878 42.4832C8.54939 43.0977 9.23354 43.6537 9.90732 43.8391C10.6848 44.0536 39.3152 44.0536 40.0927 43.8391C40.7665 43.6537 41.4506 43.0977 41.7512 42.4832L42 41.9858V25.9403V9.89475L41.7512 9.39729C41.4506 8.78278 40.7665 8.2268 40.0927 8.04147C39.8128 7.96344 39.1909 7.89516 38.7244 7.89516H37.8744L37.8329 6.84172C37.7811 5.62246 37.6049 5.20303 36.9 4.63729C36.0604 3.96426 36.7963 3.99352 22.8854 4.00327C12.447 4.00327 10.2494 4.03254 9.86585 4.13983ZM35.5732 5.79803C35.739 5.87606 35.9256 6.03213 35.9878 6.12967C36.1329 6.39303 36.1329 37.6842 35.9878 37.9476C35.6976 38.445 36.247 38.4255 22.5122 38.4255H9.7622V22.3508C9.7622 7.74885 9.77256 6.25647 9.92805 6.06139C10.0213 5.93459 10.1976 5.79803 10.322 5.74926C10.436 5.70049 16.1061 5.66147 22.9061 5.66147C33.7384 5.65171 35.314 5.67122 35.5732 5.79803ZM39.7195 9.69967C39.8854 9.77771 40.072 9.93377 40.1341 10.0313C40.2793 10.2947 40.2793 41.5859 40.1341 41.8492C39.8439 42.3467 40.5384 42.3272 25 42.3272C9.46159 42.3272 10.1561 42.3467 9.86585 41.8492C9.81402 41.7419 9.7622 41.303 9.7622 40.8738V40.0837H22.5951C36.6927 40.0837 36.05 40.113 36.8482 39.4985C37.0555 39.3229 37.3561 38.9815 37.522 38.7377L37.8018 38.2792L37.8329 23.9114L37.8537 9.55336H38.6415C39.1287 9.55336 39.5329 9.61189 39.7195 9.69967Z" fill="#295597"/>
<path d="M20.7421 8.62636C20.3171 8.84095 20.2342 9.24087 20.2342 10.9283V12.4792H18.4202C15.9324 12.4792 16.0879 12.3134 16.0879 14.908C16.0879 16.8296 16.0879 16.8588 16.3366 17.1319L16.5854 17.4051L18.3994 17.4343L20.2238 17.4636L20.2549 19.1803L20.286 20.8873L20.5763 21.1214C20.8665 21.3555 20.8976 21.3555 22.9293 21.3555C24.961 21.3555 24.9921 21.3555 25.2824 21.1214L25.5726 20.8873L25.6037 19.1803L25.6452 17.4636L27.4592 17.4343L29.2732 17.4051L29.522 17.1222L29.7811 16.8491L29.7501 14.8495C29.7086 12.2841 29.8952 12.4792 27.4281 12.4792H25.6244V10.9283C25.6244 9.2116 25.5415 8.84095 25.0958 8.62636C24.6811 8.42152 21.136 8.42152 20.7421 8.62636ZM23.7586 11.6209C23.7586 12.4402 23.8104 13.2791 23.8726 13.4839C24.0385 14.0594 24.3494 14.1374 26.3501 14.1374H28.0086V14.9665V15.7956H26.1635H24.308L24.0592 16.0492C23.8208 16.2931 23.8104 16.3614 23.7793 18.0001L23.7379 19.6973H22.8671H21.9964V17.9513V16.1955L21.7269 16.0005C21.4677 15.8151 21.3122 15.7956 19.6537 15.7956H17.8501V14.9665V14.1374H19.4982C20.4104 14.1374 21.2811 14.0887 21.4366 14.0399C21.9549 13.8546 21.986 13.7278 21.9964 11.933C21.9964 11.0161 22.0275 10.2358 22.069 10.2065C22.1001 10.1675 22.5043 10.1382 22.9501 10.1382H23.7586V11.6209Z" fill="#295597"/>
<path d="M13.068 25.7772C12.5912 26.1186 12.5497 26.6356 12.9644 27.0257L13.265 27.3086H22.926H32.5869L32.8875 27.0257C33.2607 26.6746 33.2711 26.3429 32.9186 25.9528L32.6491 25.6504H22.9467C15.4729 25.6601 13.1924 25.6797 13.068 25.7772Z" fill="#295597"/>
<path d="M13.1805 29.8709C12.6208 30.1343 12.5275 30.7878 12.9732 31.2073C13.1805 31.4023 13.3567 31.4023 22.9244 31.4023C32.4921 31.4023 32.6683 31.4023 32.8756 31.2073C33.3214 30.7878 33.2281 30.1343 32.6683 29.8709C32.2952 29.6954 13.5537 29.6954 13.1805 29.8709Z" fill="#295597"/>
<path d="M12.9732 34.1336C12.5275 34.553 12.6208 35.2065 13.1805 35.4699C13.5537 35.6455 23.6915 35.6455 24.0647 35.4699C24.6244 35.2065 24.7177 34.553 24.272 34.1336C24.075 33.9482 23.8988 33.9385 18.6226 33.9385C13.3464 33.9385 13.1702 33.9482 12.9732 34.1336Z" fill="#295597"/>
</svg>
