<svg width="48" height="48" viewBox="0 0 48 48" fill="none" xmlns="http://www.w3.org/2000/svg">
<path fill-rule="evenodd" clip-rule="evenodd" d="M4.80078 24.0008C4.80078 13.4005 13.4005 4.80078 24.0008 4.80078C34.6011 4.80078 43.2008 13.4005 43.2008 24.0008C43.2008 34.6011 34.6011 43.2008 24.0008 43.2008C13.4005 43.2008 4.80078 34.6011 4.80078 24.0008ZM24.0008 7.75463C15.0318 7.75463 7.75463 15.0318 7.75463 24.0008C7.75463 32.9697 15.0318 40.2469 24.0008 40.2469C32.9697 40.2469 40.2469 32.9697 40.2469 24.0008C40.2469 15.0318 32.9697 7.75463 24.0008 7.75463Z" fill="#078C64"/>
<path fill-rule="evenodd" clip-rule="evenodd" d="M34.2655 15.3632C34.8999 15.9138 34.9821 16.8915 34.4493 17.547L21.8493 33.0469C21.5701 33.3905 21.1605 33.5921 20.7264 33.5998C20.2923 33.6074 19.8763 33.4204 19.5858 33.0869L14.1859 26.8869C13.6317 26.2506 13.6816 25.2706 14.2973 24.6979C14.9131 24.1253 15.8615 24.1768 16.4157 24.8131L20.6617 29.6882L32.1522 15.5531C32.685 14.8976 33.6312 14.8126 34.2655 15.3632Z" fill="#078C64"/>
</svg>
