<svg width="25" height="24" viewBox="0 0 25 24" fill="none" xmlns="http://www.w3.org/2000/svg">
<path fill-rule="evenodd" clip-rule="evenodd" d="M2.75 12C2.75 6.61704 7.11704 2.25 12.5 2.25C17.883 2.25 22.25 6.61704 22.25 12C22.25 17.383 17.883 21.75 12.5 21.75C7.11704 21.75 2.75 17.383 2.75 12ZM12.5 3.75C7.94546 3.75 4.25 7.44546 4.25 12C4.25 16.5545 7.94546 20.25 12.5 20.25C17.0545 20.25 20.75 16.5545 20.75 12C20.75 7.44546 17.0545 3.75 12.5 3.75Z" fill="#295597"/>
<path fill-rule="evenodd" clip-rule="evenodd" d="M17.4824 7.67574C17.7996 7.94216 17.8407 8.41525 17.5743 8.73241L11.2743 16.2324C11.1347 16.3986 10.9299 16.4962 10.7128 16.4999C10.4958 16.5036 10.2878 16.4131 10.1425 16.2517L7.44254 13.2517C7.16544 12.9439 7.1904 12.4696 7.49828 12.1925C7.80617 11.9155 8.28038 11.9404 8.55748 12.2483L10.6805 14.6072L16.4257 7.76762C16.6921 7.45046 17.1652 7.40932 17.4824 7.67574Z" fill="#295597"/>
</svg>
