<svg width="16" height="16" viewBox="0 0 16 16" fill="none" xmlns="http://www.w3.org/2000/svg">
<g clip-path="url(#clip0_2395_7052)">
<path d="M0.413109 0.0342913C0.200609 0.0967913 0.000609444 0.381166 0.000609444 0.624916C0.000609444 0.896791 -0.133765 0.75304 3.58811 4.47492L7.10998 7.99992L3.58811 11.5249C0.347485 14.7655 0.0662344 15.0593 0.0318594 15.1874C-0.0993906 15.6843 0.316234 16.0999 0.813109 15.9687C0.941234 15.9343 1.23498 15.653 4.47873 12.4124L8.00061 8.89054L11.5256 12.4124C14.7662 15.653 15.06 15.9343 15.1881 15.9687C15.685 16.0999 16.1006 15.6843 15.9694 15.1874C15.935 15.0593 15.6537 14.7655 12.4131 11.5249L8.89123 7.99992L12.4131 4.47492C15.6537 1.23429 15.935 0.940541 15.9694 0.812416C16.1006 0.315541 15.685 -0.100084 15.1881 0.0311661C15.06 0.0655413 14.7662 0.34679 11.5256 3.58741L8.00061 7.10929L4.47873 3.58741C1.42248 0.537416 0.938109 0.0624161 0.828734 0.0342913C0.681859 -0.0063343 0.553734 -0.0063343 0.413109 0.0342913Z" fill="#295597"/>
</g>
<defs>
<clipPath id="clip0_2395_7052">
<rect width="16" height="16" fill="white"/>
</clipPath>
</defs>
</svg>
