<svg width="48" height="48" viewBox="0 0 48 48" fill="none" xmlns="http://www.w3.org/2000/svg">
<path d="M24.0008 40.8008C19.5451 40.8008 15.272 39.0308 12.1214 35.8802C8.97078 32.7296 7.20078 28.4564 7.20078 24.0008C7.20078 19.5451 8.97078 15.272 12.1214 12.1214C15.272 8.97078 19.5451 7.20078 24.0008 7.20078C28.4564 7.20078 32.7296 8.97078 35.8802 12.1214C39.0308 15.272 40.8008 19.5451 40.8008 24.0008C40.8008 28.4564 39.0308 32.7296 35.8802 35.8802C32.7296 39.0308 28.4564 40.8008 24.0008 40.8008ZM24.0008 43.2008C29.0929 43.2008 33.9765 41.1779 37.5772 37.5772C41.1779 33.9765 43.2008 29.0929 43.2008 24.0008C43.2008 18.9086 41.1779 14.025 37.5772 10.4243C33.9765 6.82363 29.0929 4.80078 24.0008 4.80078C18.9086 4.80078 14.025 6.82363 10.4243 10.4243C6.82363 14.025 4.80078 18.9086 4.80078 24.0008C4.80078 29.0929 6.82363 33.9765 10.4243 37.5772C14.025 41.1779 18.9086 43.2008 24.0008 43.2008Z" fill="#CC3229"/>
<path d="M21.6738 31.42C21.6738 31.0955 21.734 30.7741 21.851 30.4743C21.9679 30.1745 22.1394 29.9021 22.3555 29.6726C22.5716 29.4432 22.8281 29.2611 23.1105 29.1369C23.3929 29.0127 23.6955 28.9488 24.0011 28.9488C24.3067 28.9488 24.6094 29.0127 24.8917 29.1369C25.1741 29.2611 25.4306 29.4432 25.6467 29.6726C25.8628 29.9021 26.0343 30.1745 26.1512 30.4743C26.2682 30.7741 26.3284 31.0955 26.3284 31.42C26.3284 32.0754 26.0832 32.704 25.6467 33.1674C25.2103 33.6308 24.6183 33.8912 24.0011 33.8912C23.3839 33.8912 22.7919 33.6308 22.3555 33.1674C21.919 32.704 21.6738 32.0754 21.6738 31.42ZM21.9019 16.5806C21.8709 16.2688 21.902 15.9536 21.9931 15.6554C22.0843 15.3572 22.2334 15.0827 22.4309 14.8497C22.6284 14.6167 22.8699 14.4304 23.1396 14.3028C23.4093 14.1753 23.7012 14.1094 23.9964 14.1094C24.2917 14.1094 24.5836 14.1753 24.8533 14.3028C25.123 14.4304 25.3645 14.6167 25.562 14.8497C25.7595 15.0827 25.9086 15.3572 25.9998 15.6554C26.0909 15.9536 26.122 16.2688 26.091 16.5806L25.2764 25.247C25.2491 25.5875 25.1024 25.9046 24.8653 26.1357C24.6283 26.3668 24.3182 26.4951 23.9964 26.4951C23.6746 26.4951 23.3646 26.3668 23.1275 26.1357C22.8905 25.9046 22.7438 25.5875 22.7164 25.247L21.9019 16.5806Z" fill="#CC3229"/>
</svg>
