<svg width="24" height="24" viewBox="0 0 24 24" fill="none" xmlns="http://www.w3.org/2000/svg">
<path d="M19.045 7.40137C19.423 7.02337 19.631 6.52137 19.631 5.98737C19.631 5.45337 19.423 4.95137 19.045 4.57337L17.459 2.98737C17.081 2.60937 16.579 2.40137 16.045 2.40137C15.511 2.40137 15.009 2.60937 14.632 2.98637L4 13.5854V18.0004H8.413L19.045 7.40137ZM16.045 4.40137L17.632 5.98637L16.042 7.57037L14.456 5.98537L16.045 4.40137ZM6 16.0004V14.4154L13.04 7.39737L14.626 8.98337L7.587 16.0004H6ZM4 20.0004H20V22.0004H4V20.0004Z" fill="#295597"/>
</svg>
