<svg width="24" height="24" viewBox="0 0 24 24" fill="none" xmlns="http://www.w3.org/2000/svg">
<path d="M17.1755 3.65625C17.6771 3.81094 18.0427 4.36875 17.9865 4.89844C17.9443 5.31563 17.7005 5.67188 17.3208 5.87344L17.1333 5.97656H9.00054H0.867725L0.680225 5.87344C0.248976 5.64375 0.0286636 5.27813 0.0239754 4.80469C0.0239754 4.32656 0.248976 3.94688 0.670851 3.71719C0.811476 3.6375 1.27554 3.63281 8.93023 3.62344C13.3927 3.61875 17.1005 3.63281 17.1755 3.65625Z" fill="white"/>
<path d="M23.0621 10.8328C23.4839 10.9172 23.9152 11.3625 23.9808 11.7891C24.0277 12.1031 23.9667 12.3938 23.798 12.6422C23.6011 12.9328 23.3339 13.1156 23.0152 13.1719C22.8417 13.2047 19.0636 13.2141 11.8355 13.2094C1.94487 13.1953 0.899559 13.1859 0.749557 13.1203C0.505808 13.0078 0.29487 12.8156 0.149559 12.5672C0.0417461 12.3844 0.022995 12.3 0.022995 12C0.022995 11.7 0.0417461 11.6156 0.149559 11.4328C0.29487 11.1844 0.505808 10.9922 0.749557 10.8797C0.899559 10.8094 1.94018 10.8047 11.8824 10.8C18.0933 10.7953 22.9449 10.8094 23.0621 10.8328Z" fill="white"/>
<path d="M12.3777 18.0656C13.4184 18.4359 13.4746 19.8375 12.4668 20.2922C12.2606 20.3859 12.1902 20.3906 6.62618 20.3906C0.358995 20.3906 0.738684 20.4094 0.382433 20.0672C0.115246 19.8047 0.0214958 19.5797 0.0214958 19.1953C0.0261831 18.9516 0.0496206 18.8156 0.12462 18.675C0.269934 18.4031 0.612121 18.1172 0.865246 18.0516C1.184 17.9719 12.1481 17.9813 12.3777 18.0656Z" fill="white"/>
</svg>
