<svg width="24" height="24" viewBox="0 0 24 24" fill="none" xmlns="http://www.w3.org/2000/svg">
<path fill-rule="evenodd" clip-rule="evenodd" d="M8.46447 3.46447C9.40215 2.52678 10.6739 2 12 2C13.3261 2 14.5979 2.52678 15.5355 3.46447C16.4732 4.40215 17 5.67392 17 7V10H18C18.7957 10 19.5587 10.3161 20.1213 10.8787C20.6839 11.4413 21 12.2043 21 13V19C21 19.7957 20.6839 20.5587 20.1213 21.1213C19.5587 21.6839 18.7957 22 18 22H6C5.20435 22 4.44129 21.6839 3.87868 21.1213C3.31607 20.5587 3 19.7957 3 19V13C3 12.2044 3.31607 11.4413 3.87868 10.8787C4.44129 10.3161 5.20435 10 6 10H7V7C7 5.67392 7.52678 4.40215 8.46447 3.46447ZM9 10H15V7C15 6.20435 14.6839 5.44129 14.1213 4.87868C13.5587 4.31607 12.7956 4 12 4C11.2044 4 10.4413 4.31607 9.87868 4.87868C9.31607 5.44129 9 6.20435 9 7V10ZM6 12C5.73478 12 5.48043 12.1054 5.29289 12.2929C5.10536 12.4804 5 12.7348 5 13V19C5 19.2652 5.10536 19.5196 5.29289 19.7071C5.48043 19.8946 5.73478 20 6 20H18C18.2652 20 18.5196 19.8946 18.7071 19.7071C18.8946 19.5196 19 19.2652 19 19V13C19 12.7348 18.8946 12.4804 18.7071 12.2929C18.5196 12.1054 18.2652 12 18 12H6ZM12 14C12.5523 14 13 14.4477 13 15V17C13 17.5523 12.5523 18 12 18C11.4477 18 11 17.5523 11 17V15C11 14.4477 11.4477 14 12 14Z" fill="#295597"/>
</svg>
