<svg width="344" height="25" viewBox="0 0 344 25" fill="none" xmlns="http://www.w3.org/2000/svg">
<path d="M77.0168 0.0129032C74.962 0.110239 73.0943 0.666079 71.393 1.68811C69.6969 2.70501 68.3505 4.08437 67.3552 5.82105C66.5199 7.28109 66.0318 8.89098 65.8909 10.6558C65.7974 11.8341 65.864 13.1046 66.0767 14.1971C66.3739 15.7237 66.9209 17.0595 67.7766 18.3505C68.9834 20.1692 70.6603 21.5767 72.6959 22.4783C74.5777 23.3121 76.7094 23.6374 78.9 23.4248C81.3557 23.1853 83.6347 22.2068 85.482 20.5995C85.7075 20.4022 86.2596 19.8541 86.4466 19.6402C86.8425 19.1881 87.1153 18.8295 87.4343 18.3479C88.7064 16.4243 89.3405 14.2214 89.3405 11.7317C89.3405 9.61459 88.8665 7.673 87.9378 5.97474C86.7848 3.87049 85.0849 2.24395 82.9417 1.1963C81.5428 0.51239 80.0978 0.135853 78.4388 0.0257111C78.1647 0.00649834 77.3038 9.53674e-05 77.0168 0.0129032ZM78.1378 4.26495C79.4841 4.35204 80.6076 4.71961 81.6222 5.40609C81.9809 5.64815 82.255 5.87868 82.5766 6.20655C83.0775 6.71885 83.4541 7.25548 83.7936 7.94707C84.242 8.85896 84.4853 9.80927 84.5776 11.0144C84.6019 11.3333 84.5981 12.2004 84.5712 12.5257C84.5033 13.3351 84.3816 13.955 84.1587 14.6197C83.8717 15.4817 83.449 16.2411 82.8699 16.9379C82.7188 17.1197 82.2922 17.5436 82.1026 17.6999C81.1495 18.4888 80.0657 18.9665 78.8167 19.1522C78.3709 19.2176 78.1903 19.2304 77.6125 19.2304C77.0489 19.2304 76.8605 19.2188 76.4468 19.1586C74.0576 18.8154 72.177 17.3733 71.2355 15.164C70.9293 14.4443 70.7294 13.6425 70.6449 12.7947C70.5757 12.1069 70.5757 11.3244 70.6449 10.6558C70.8921 8.24933 72.0323 6.32438 73.8616 5.22551C74.7494 4.69144 75.828 4.35845 76.9208 4.27776C77.0271 4.27007 77.136 4.26239 77.1642 4.25983C77.2974 4.24958 77.9558 4.25343 78.1378 4.26495Z" fill="white"/>
<path d="M119.208 0.014122C116.979 0.115301 114.927 0.780005 113.113 1.98902C112.038 2.70623 111.119 3.57586 110.345 4.61069C109.228 6.10275 108.514 7.77924 108.212 9.61838C108.111 10.2357 108.061 10.8069 108.049 11.5075C108.008 13.7718 108.513 15.853 109.542 17.6524C110.24 18.8755 111.121 19.9296 112.175 20.8056C113.093 21.5664 114.219 22.226 115.372 22.6781C117.397 23.4721 119.757 23.6911 122.033 23.2954C124.107 22.9368 126.081 21.9903 127.693 20.5866C127.928 20.3804 128.422 19.8899 128.632 19.6517C129.991 18.1109 130.89 16.3038 131.289 14.3123C131.46 13.4542 131.531 12.7024 131.531 11.7316C131.531 11.1796 131.521 10.9234 131.48 10.4829C131.342 8.98953 130.965 7.63579 130.327 6.3525C129.432 4.5569 128.112 3.05075 126.482 1.96853C124.354 0.555876 121.89 -0.106266 119.208 0.014122ZM120.336 4.26489C121.345 4.33021 122.201 4.54666 123.013 4.9424C123.331 5.09737 123.49 5.1883 123.769 5.37401C124.859 6.09891 125.694 7.14783 126.212 8.4401C126.695 9.64783 126.89 11.1629 126.754 12.6665C126.627 14.0638 126.225 15.2652 125.537 16.3038C125.274 16.6996 125.033 16.9941 124.699 17.3284C124.193 17.833 123.681 18.2006 123.03 18.5259C122.273 18.9037 121.455 19.1266 120.515 19.2111C120.268 19.2342 119.582 19.2418 119.317 19.2252C118.044 19.1458 116.963 18.8141 115.988 18.2032C115.118 17.6576 114.408 16.9288 113.87 16.0285C113.252 14.9924 112.909 13.8346 112.807 12.4296C112.774 11.957 112.789 11.1437 112.843 10.6366C113.015 9.00618 113.585 7.61274 114.536 6.49978C114.694 6.31664 115.044 5.97083 115.231 5.81587C116.127 5.06791 117.177 4.5838 118.358 4.37376C118.675 4.3174 118.909 4.29179 119.356 4.26105C119.504 4.2508 120.153 4.25337 120.336 4.26489Z" fill="white"/>
<path d="M323.246 0.83897V1.67785H324.662H326.077V5.27032V8.86279H327.108H328.14V5.27032V1.67785H329.555H330.971V0.83897V8.7738e-05H327.108H323.246V0.83897Z" fill="white"/>
<path d="M332.355 4.43144V8.86279H333.323H334.29L334.292 6.27698L334.296 3.69117L335.584 5.80951L336.871 7.92657L337.339 7.92785H337.806L339.1 5.75572L340.394 3.58359L340.402 5.26648C340.406 6.19117 340.411 7.37842 340.412 7.9048L340.413 8.86279H341.382H342.35L342.343 7.01469C342.339 5.99906 342.331 4.00495 342.327 2.58334L342.319 8.7738e-05H341.471L340.625 0.00136852L339.012 2.72294C338.124 4.22012 337.393 5.45347 337.384 5.46371C337.372 5.48036 337.067 4.98088 335.717 2.74215L334.066 8.7738e-05H333.211H332.355V4.43144Z" fill="white"/>
<path d="M263.507 0.348465C263.497 0.379202 261.646 5.53545 259.392 11.8085C257.139 18.0816 255.293 23.2237 255.289 23.2352C255.284 23.257 255.406 23.2583 257.704 23.2583H260.124L260.878 21.0746L261.634 18.891L266.193 18.8948L270.753 18.8974L271.506 21.0746C271.921 22.2721 272.261 23.2532 272.261 23.2545C272.261 23.257 273.357 23.2583 274.696 23.2583H277.131L277.126 23.2288C277.121 23.2071 268.934 0.409941 268.898 0.316446C268.889 0.295956 268.749 0.294674 266.208 0.294674H263.526L263.507 0.348465ZM267.902 10.5918C268.79 13.1597 269.522 15.2703 269.525 15.2819C269.534 15.3036 269.37 15.3049 266.195 15.3049C263.02 15.3049 262.855 15.3036 262.861 15.2819C262.864 15.2703 263.592 13.1648 264.478 10.6046C265.365 8.04442 266.113 5.87997 266.141 5.79544L266.192 5.64175L266.24 5.78263C266.267 5.86076 267.015 8.02393 267.902 10.5918Z" fill="white"/>
<path d="M296.627 11.7765V23.2583H298.933H301.239L301.241 15.4112L301.245 7.56414L306.44 15.4112L311.633 23.2583H313.936H316.24V11.7765V0.294674H313.934H311.628L311.625 8.15712L311.622 16.0183L306.428 8.15712L301.235 0.294674H298.932H296.627V11.7765Z" fill="white"/>
<path d="M1.65234 11.7957V23.2583H3.95823H6.26412V18.3851V13.5119H9.92151H13.5789V11.7317V9.95144H9.92151H6.26412V6.95451V3.95759H11.0424H15.8207V2.14534V0.333097H8.73654H1.65234V11.7957Z" fill="white"/>
<path d="M35.4727 11.7957V23.2583H41.5576H47.6426V21.4973V19.7363H43.8635H40.0844V10.0347V0.333097H37.7785H35.4727V11.7957Z" fill="white"/>
<path d="M151.355 11.7957V23.2583H153.661H155.967V18.7949V14.3316L157.046 14.3341L158.126 14.338L160.649 18.7949L163.174 23.2519L165.843 23.2557C167.976 23.2583 168.51 23.2557 168.505 23.2429C168.502 23.234 167.273 21.1489 165.774 18.6092C164.275 16.0695 163.046 13.9858 163.042 13.9781C163.04 13.9704 163.099 13.9473 163.189 13.9217C163.436 13.8526 163.785 13.7335 164.04 13.6323C165.229 13.161 166.161 12.4758 166.856 11.5588C167.26 11.0273 167.612 10.3766 167.849 9.72603C168.264 8.58617 168.36 7.15174 168.104 5.87869C167.9 4.86179 167.447 3.86793 166.84 3.10846C166.276 2.40405 165.598 1.85205 164.708 1.37178C164.312 1.15789 163.939 1.00036 163.455 0.838989C162.615 0.558508 161.718 0.402258 160.649 0.345905C160.498 0.338221 158.698 0.333097 155.881 0.333097H151.355V11.7957ZM160.348 4.07157C161.017 4.13945 161.489 4.2624 161.916 4.48013C162.192 4.61973 162.422 4.79007 162.636 5.00907C163.131 5.5188 163.415 6.1976 163.487 7.04032C163.507 7.27854 163.497 7.8792 163.468 8.08156C163.358 8.87434 163.076 9.48525 162.599 9.96553C162.097 10.4727 161.445 10.7506 160.477 10.8697C160.323 10.8889 160.06 10.8915 158.136 10.8953L155.967 10.9005V7.47321V4.04596L158.085 4.05108C159.572 4.05492 160.245 4.06005 160.348 4.07157Z" fill="white"/>
<path d="M188.826 11.7957V23.2583H191.132H193.438V18.859V14.4596H195.523C196.721 14.4596 197.731 14.4545 197.896 14.4468C199.873 14.3585 201.347 13.9281 202.642 13.0636C203.604 12.4207 204.286 11.6638 204.774 10.6943C205.183 9.88612 205.409 9.11255 205.514 8.17761C205.548 7.88689 205.546 6.92889 205.514 6.62792C205.45 6.04134 205.352 5.56363 205.197 5.08591C204.636 3.3646 203.525 2.10179 201.835 1.26675C200.799 0.755737 199.761 0.490625 198.28 0.362551C198.052 0.34206 197.627 0.340778 193.429 0.336937L188.826 0.331814V11.7957ZM197.416 3.996C198.721 4.06516 199.605 4.45451 200.165 5.2063C200.494 5.64816 200.687 6.16045 200.773 6.81363C200.801 7.03007 200.812 7.58207 200.792 7.81645C200.721 8.66173 200.436 9.33156 199.921 9.86563C199.479 10.3241 198.848 10.6289 198.074 10.757C197.637 10.8287 197.712 10.8275 195.491 10.8313L193.438 10.8364V7.40917V3.9832H195.306C196.374 3.9832 197.276 3.98832 197.416 3.996Z" fill="white"/>
<path d="M225.209 11.7957V23.2583H231.288H237.366V21.4973V19.7363H233.593H229.821V10.0347V0.333097H227.515H225.209V11.7957Z" fill="white"/>
</svg>
