<svg width="344" height="25" viewBox="0 0 344 25" fill="none" xmlns="http://www.w3.org/2000/svg">
<path d="M77.0168 0.0131474C74.962 0.110483 73.0943 0.666323 71.393 1.68835C69.6969 2.70526 68.3505 4.08461 67.3552 5.82129C66.5199 7.28133 66.0318 8.89122 65.8909 10.6561C65.7974 11.8344 65.864 13.1048 66.0767 14.1973C66.3739 15.724 66.9209 17.0598 67.7766 18.3507C68.9834 20.1694 70.6603 21.5769 72.6959 22.4786C74.5777 23.3123 76.7094 23.6376 78.9 23.425C81.3557 23.1855 83.6347 22.207 85.482 20.5997C85.7075 20.4025 86.2596 19.8543 86.4466 19.6405C86.8425 19.1884 87.1153 18.8297 87.4343 18.3482C88.7064 16.4245 89.3405 14.2217 89.3405 11.7319C89.3405 9.61484 88.8665 7.67324 87.9378 5.97498C86.7848 3.87073 85.0849 2.24419 82.9417 1.19655C81.5428 0.512634 80.0978 0.136097 78.4388 0.0259552C78.1647 0.00674248 77.3038 0.000339508 77.0168 0.0131474ZM78.1378 4.2652C79.4841 4.35229 80.6076 4.71986 81.6222 5.40633C81.9809 5.64839 82.255 5.87893 82.5766 6.20679C83.0775 6.71909 83.4541 7.25572 83.7936 7.94732C84.242 8.8592 84.4853 9.80951 84.5776 11.0147C84.6019 11.3336 84.5981 12.2006 84.5712 12.526C84.5033 13.3354 84.3816 13.9553 84.1587 14.62C83.8717 15.4819 83.449 16.2414 82.8699 16.9381C82.7188 17.12 82.2922 17.5439 82.1026 17.7001C81.1495 18.4891 80.0657 18.9668 78.8167 19.1525C78.3709 19.2178 78.1903 19.2306 77.6125 19.2306C77.0489 19.2306 76.8605 19.2191 76.4468 19.1589C74.0576 18.8157 72.177 17.3735 71.2355 15.1643C70.9293 14.4445 70.7294 13.6428 70.6449 12.7949C70.5757 12.1072 70.5757 11.3246 70.6449 10.6561C70.8921 8.24957 72.0323 6.32462 73.8616 5.22575C74.7494 4.69168 75.828 4.35869 76.9208 4.278C77.0271 4.27032 77.136 4.26264 77.1642 4.26007C77.2974 4.24983 77.9558 4.25367 78.1378 4.2652Z" fill="#295597"/>
<path d="M119.208 0.0146103C116.979 0.115789 114.927 0.780493 113.113 1.98951C112.038 2.70672 111.119 3.57634 110.345 4.61118C109.228 6.10324 108.514 7.77973 108.212 9.61887C108.111 10.2362 108.061 10.8074 108.049 11.508C108.008 13.7723 108.513 15.8535 109.542 17.6529C110.24 18.876 111.121 19.9301 112.175 20.8061C113.093 21.5669 114.219 22.2264 115.372 22.6785C117.397 23.4726 119.757 23.6916 122.033 23.2959C124.107 22.9373 126.081 21.9908 127.693 20.5871C127.928 20.3809 128.422 19.8904 128.632 19.6522C129.991 18.1114 130.89 16.3043 131.289 14.3128C131.46 13.4547 131.531 12.7029 131.531 11.7321C131.531 11.1801 131.521 10.9239 131.48 10.4834C131.342 8.99002 130.965 7.63628 130.327 6.35298C129.432 4.55739 128.112 3.05124 126.482 1.96902C124.354 0.556364 121.89 -0.105778 119.208 0.0146103ZM120.336 4.26538C121.345 4.3307 122.201 4.54714 123.013 4.94289C123.331 5.09786 123.49 5.18879 123.769 5.3745C124.859 6.0994 125.694 7.14832 126.212 8.44059C126.695 9.64832 126.89 11.1634 126.754 12.667C126.627 14.0643 126.225 15.2656 125.537 16.3043C125.274 16.7001 125.033 16.9946 124.699 17.3289C124.193 17.8335 123.681 18.2011 123.03 18.5264C122.273 18.9042 121.455 19.1271 120.515 19.2116C120.268 19.2346 119.582 19.2423 119.317 19.2257C118.044 19.1463 116.963 18.8146 115.988 18.2037C115.118 17.6581 114.408 16.9293 113.87 16.029C113.252 14.9928 112.909 13.8351 112.807 12.4301C112.774 11.9575 112.789 11.1442 112.843 10.6371C113.015 9.00667 113.585 7.61323 114.536 6.50027C114.694 6.31712 115.044 5.97132 115.231 5.81635C116.127 5.0684 117.177 4.58428 118.358 4.37424C118.675 4.31789 118.909 4.29228 119.356 4.26154C119.504 4.25129 120.153 4.25385 120.336 4.26538Z" fill="#295597"/>
<path d="M323.246 0.839458V1.67834H324.662H326.077V5.27081V8.86328H327.108H328.14V5.27081V1.67834H329.555H330.971V0.839458V0.000576019H327.108H323.246V0.839458Z" fill="#295597"/>
<path d="M332.355 4.43193V8.86328H333.323H334.29L334.292 6.27747L334.296 3.69166L335.584 5.81L336.871 7.92706L337.339 7.92834H337.806L339.1 5.75621L340.394 3.58408L340.402 5.26697C340.406 6.19166 340.411 7.37891 340.412 7.90529L340.413 8.86328H341.382H342.35L342.343 7.01518C342.339 5.99955 342.331 4.00544 342.327 2.58382L342.319 0.000576019H341.471L340.625 0.0018568L339.012 2.72342C338.124 4.22061 337.393 5.45396 337.384 5.4642C337.372 5.48085 337.067 4.98136 335.717 2.74264L334.066 0.000576019H333.211H332.355V4.43193Z" fill="#295597"/>
<path d="M263.507 0.348953C263.497 0.37969 261.646 5.53594 259.392 11.809C257.139 18.082 255.293 23.2242 255.289 23.2357C255.284 23.2575 255.406 23.2588 257.704 23.2588H260.124L260.878 21.0751L261.634 18.8915L266.193 18.8953L270.753 18.8979L271.506 21.0751C271.921 22.2726 272.261 23.2537 272.261 23.2549C272.261 23.2575 273.357 23.2588 274.696 23.2588H277.131L277.126 23.2293C277.121 23.2076 268.934 0.410429 268.898 0.316935C268.889 0.296444 268.749 0.295162 266.208 0.295162H263.526L263.507 0.348953ZM267.902 10.5923C268.79 13.1602 269.522 15.2708 269.525 15.2824C269.534 15.3041 269.37 15.3054 266.195 15.3054C263.02 15.3054 262.855 15.3041 262.861 15.2824C262.864 15.2708 263.592 13.1653 264.478 10.6051C265.365 8.04491 266.113 5.88046 266.141 5.79593L266.192 5.64224L266.24 5.78312C266.267 5.86125 267.015 8.02441 267.902 10.5923Z" fill="#295597"/>
<path d="M296.627 11.777V23.2588H298.933H301.239L301.241 15.4117L301.245 7.56463L306.44 15.4117L311.633 23.2588H313.936H316.24V11.777V0.295162H313.934H311.628L311.625 8.15761L311.622 16.0188L306.428 8.15761L301.235 0.295162H298.932H296.627V11.777Z" fill="#295597"/>
<path d="M1.65234 11.7962V23.2588H3.95823H6.26412V18.3856V13.5124H9.92151H13.5789V11.7322V9.95193H9.92151H6.26412V6.955V3.95807H11.0424H15.8207V2.14583V0.333586H8.73654H1.65234V11.7962Z" fill="#295597"/>
<path d="M35.4727 11.7962V23.2588H41.5576H47.6426V21.4978V19.7368H43.8635H40.0844V10.0352V0.333586H37.7785H35.4727V11.7962Z" fill="#295597"/>
<path d="M151.355 11.7962V23.2588H153.661H155.967V18.7954V14.332L157.046 14.3346L158.126 14.3385L160.649 18.7954L163.174 23.2524L165.843 23.2562C167.976 23.2588 168.51 23.2562 168.505 23.2434C168.502 23.2345 167.273 21.1494 165.774 18.6097C164.275 16.07 163.046 13.9862 163.042 13.9786C163.04 13.9709 163.099 13.9478 163.189 13.9222C163.436 13.8531 163.785 13.7339 164.04 13.6328C165.229 13.1615 166.161 12.4763 166.856 11.5593C167.26 11.0277 167.612 10.3771 167.849 9.72652C168.264 8.58666 168.36 7.15223 168.104 5.87918C167.9 4.86227 167.447 3.86842 166.84 3.10894C166.276 2.40454 165.598 1.85254 164.708 1.37226C164.312 1.15838 163.939 1.00085 163.455 0.839478C162.615 0.558996 161.718 0.402746 160.649 0.346394C160.498 0.338709 158.698 0.333586 155.881 0.333586H151.355V11.7962ZM160.348 4.07206C161.017 4.13994 161.489 4.26289 161.916 4.48062C162.192 4.62021 162.422 4.79055 162.636 5.00956C163.131 5.51929 163.415 6.19808 163.487 7.04081C163.507 7.27903 163.497 7.87969 163.468 8.08205C163.358 8.87483 163.076 9.48574 162.599 9.96601C162.097 10.4732 161.445 10.7511 160.477 10.8702C160.323 10.8894 160.06 10.892 158.136 10.8958L155.967 10.901V7.4737V4.04644L158.085 4.05157C159.572 4.05541 160.245 4.06053 160.348 4.07206Z" fill="#295597"/>
<path d="M188.826 11.7962V23.2588H191.132H193.438V18.8595V14.4601H195.523C196.721 14.4601 197.731 14.455 197.896 14.4473C199.873 14.3589 201.347 13.9286 202.642 13.0641C203.604 12.4212 204.286 11.6643 204.774 10.6948C205.183 9.88661 205.409 9.11304 205.514 8.1781C205.548 7.88737 205.546 6.92938 205.514 6.62841C205.45 6.04183 205.352 5.56412 205.197 5.0864C204.636 3.36509 203.525 2.10228 201.835 1.26724C200.799 0.756226 199.761 0.491114 198.28 0.363039C198.052 0.342548 197.627 0.341267 193.429 0.337425L188.826 0.332302V11.7962ZM197.416 3.99649C198.721 4.06565 199.605 4.455 200.165 5.20679C200.494 5.64864 200.687 6.16094 200.773 6.81412C200.801 7.03056 200.812 7.58256 200.792 7.81693C200.721 8.66222 200.436 9.33205 199.921 9.86611C199.479 10.3246 198.848 10.6294 198.074 10.7575C197.637 10.8292 197.712 10.8279 195.491 10.8318L193.438 10.8369V7.40966V3.98368H195.306C196.374 3.98368 197.276 3.98881 197.416 3.99649Z" fill="#295597"/>
<path d="M225.209 11.7962V23.2588H231.288H237.366V21.4978V19.7368H233.593H229.821V10.0352V0.333586H227.515H225.209V11.7962Z" fill="#295597"/>
</svg>
