<svg width="48" height="48" viewBox="0 0 48 48" fill="none" xmlns="http://www.w3.org/2000/svg">
<path fill-rule="evenodd" clip-rule="evenodd" d="M24.3659 8.5625C32.7231 8.75663 39.4384 15.5957 39.4384 23.9996C39.4384 32.5331 32.5404 39.4532 23.9987 39.4371C15.4496 39.421 8.46878 32.3956 8.56345 23.8385C8.60208 20.0962 9.9998 16.4956 12.4962 13.7075C12.9337 13.2189 13.6844 13.1774 14.1731 13.6149C14.6617 14.0524 14.7031 14.8031 14.2656 15.2917C12.1535 17.6507 10.9709 20.6971 10.9383 23.8634L10.9383 23.8643C10.8581 31.0934 16.766 37.0485 24.0031 37.0621C31.2254 37.0757 37.0634 31.2257 37.0634 23.9996C37.0634 17.185 31.8449 11.5865 25.1884 10.9865V16.2809C25.1884 16.9367 24.6567 17.4684 24.0009 17.4684C23.345 17.4684 22.8134 16.9367 22.8134 16.2809V10.0751" fill="#295597"/>
<path d="M22.3215 25.6793L16.4582 17.2925C16.3771 17.1763 16.3395 17.0353 16.3519 16.8941C16.3644 16.753 16.4261 16.6207 16.5263 16.5205C16.6265 16.4203 16.7588 16.3585 16.9 16.3461C17.0411 16.3336 17.1822 16.3713 17.2984 16.4524L25.6851 22.3157C26.1995 22.6862 26.5474 23.2443 26.6535 23.8693C26.7596 24.4943 26.6154 25.1359 26.2521 25.6554C25.8887 26.1749 25.3355 26.5305 24.712 26.6452C24.0885 26.76 23.4449 26.6247 22.9205 26.2685C22.6886 26.1078 22.486 25.9085 22.3215 25.6793Z" fill="#295597"/>
</svg>
