<svg width="48" height="48" viewBox="0 0 48 48" fill="none" xmlns="http://www.w3.org/2000/svg">
<path d="M23.6012 6.04515C22.5101 6.24665 21.7375 6.65771 20.9649 7.45564C20.4313 7.99566 20.0171 8.70493 12.4984 21.891C8.14963 29.5238 4.50974 35.9395 4.4062 36.1571C4.09558 36.8261 4 37.3097 4 38.2043C4 38.8088 4.04779 39.1796 4.15133 39.4939C4.71683 41.1865 5.87172 42.3471 7.50449 42.8549C7.95848 42.9919 8.68327 43 24.3499 43C40.0166 43 40.7414 42.9919 41.1954 42.8549C42.8282 42.3471 43.983 41.1865 44.5485 39.4939C44.6521 39.1796 44.6999 38.8088 44.6999 38.2043C44.6999 37.3097 44.6043 36.8261 44.2937 36.1571C44.1901 35.9475 40.5502 29.5238 36.2015 21.8991C28.4359 8.2697 28.2845 8.01178 27.6951 7.41534C26.8031 6.50457 25.8792 6.09351 24.5889 6.01291C24.2623 5.98873 23.8163 6.00485 23.6012 6.04515ZM24.9393 8.50344C25.4969 8.64851 25.9986 8.98703 26.2774 9.40615C26.3969 9.57541 30.0049 15.8783 34.3059 23.4143C39.2759 32.1352 42.1671 37.2774 42.2467 37.5515C42.5653 38.6799 41.9042 39.9936 40.7971 40.4289C40.4069 40.574 39.9768 40.582 24.3499 40.582C8.7231 40.582 8.293 40.574 7.90273 40.4289C7.38502 40.2274 6.81156 39.6712 6.58058 39.1473C6.31774 38.559 6.32571 37.6724 6.58058 37.1565C7.29741 35.7622 22.4464 9.34973 22.6534 9.13211C22.9561 8.82583 23.4181 8.57597 23.8482 8.4712C24.2942 8.36642 24.4296 8.36642 24.9393 8.50344Z" fill="#CC3229"/>
<path d="M23.1582 24.1035V30.1484H24.3529H25.5476V24.1035V18.0585H24.3529H23.1582V24.1035Z" fill="#CC3229"/>
<path d="M23.8106 32.6494C23.4283 32.7622 22.9425 33.2942 22.831 33.7052C22.6478 34.4226 22.9266 35.1721 23.5319 35.551C23.9859 35.8411 24.7584 35.825 25.2045 35.5268C25.6983 35.1963 25.9054 34.8014 25.9054 34.1727C25.9054 33.5521 25.6983 33.1491 25.2284 32.8348C24.8859 32.601 24.2328 32.5204 23.8106 32.6494Z" fill="#CC3229"/>
</svg>
