<svg width="48" height="48" viewBox="0 0 48 48" fill="none" xmlns="http://www.w3.org/2000/svg">
<path d="M5.29609 7.21278C4.75978 7.46102 4.42905 7.79792 4.18771 8.32986C4.00894 8.72881 4 8.82634 4 24.0222C4 39.218 4.00894 39.3155 4.18771 39.7145C4.41117 40.2021 4.7419 40.5567 5.2067 40.805L5.56425 41H24.0223H42.4804L42.838 40.805C43.2581 40.5833 43.5978 40.2375 43.8302 39.8031C43.9911 39.5017 44 38.9432 44 24.0222V8.5515L43.8034 8.19687C43.5531 7.73586 43.1955 7.40782 42.7039 7.18618C42.3017 7.00887 42.2212 7 24.0223 7H5.74302L5.29609 7.21278ZM42.1944 8.51604C42.3196 8.56923 42.4626 8.71108 42.5162 8.8352C42.6592 9.13664 42.6592 38.9077 42.5162 39.2091C42.4626 39.3332 42.3196 39.4751 42.1944 39.5283C41.8905 39.6701 6.15419 39.6701 5.85028 39.5283C5.72514 39.4751 5.58212 39.3332 5.52849 39.2091C5.38547 38.9077 5.38547 9.13664 5.52849 8.82634C5.58212 8.71108 5.7162 8.56923 5.82346 8.5249C6.10056 8.39192 41.8994 8.38305 42.1944 8.51604Z" fill="#295597"/>
<path d="M7.08479 10.0586L6.86133 10.2714V21.1851V32.0988L7.08479 32.3116L7.29932 32.5332H24.0233H40.7474L40.9619 32.3116L41.1853 32.0988V21.1851V10.2714L40.9619 10.0586L40.7474 9.83698H24.0233H7.29932L7.08479 10.0586ZM39.7552 21.1851V31.1147H24.0233H8.2915V21.1851V11.2555H24.0233H39.7552V21.1851Z" fill="#295597"/>
<path d="M17.1752 12.8061C17.0411 12.8948 16.5942 14.0207 15.6109 16.6982L14.2344 20.475H12.1964H10.1584L9.94389 20.6966C9.64891 20.9803 9.64891 21.3881 9.94389 21.6718L10.1584 21.8935H12.5539C14.5025 21.8935 14.9852 21.8669 15.1372 21.7605C15.2713 21.6718 15.6377 20.7941 16.3439 18.8614C16.8981 17.3365 17.3718 16.1485 17.3808 16.2194C17.3986 16.2904 17.9439 19.2781 18.6053 22.8599C19.678 28.7555 19.812 29.385 19.9998 29.5357C20.107 29.6244 20.3126 29.6953 20.4467 29.6953C20.9919 29.6953 21.0009 29.6864 22.2791 24.9167C22.9405 22.4609 23.4947 20.4395 23.5126 20.4218C23.5215 20.404 23.9953 21.3172 24.5584 22.4343C25.1215 23.5602 25.6668 24.5355 25.7651 24.6064C26.0243 24.7926 26.4176 24.7571 26.6411 24.5266C26.793 24.3759 27.0791 23.4361 27.8567 20.4927C28.4199 18.3827 28.9115 16.6893 28.9383 16.7248C28.9741 16.7691 29.5014 19.287 30.1092 22.3368C31.0567 27.0533 31.2444 27.9044 31.4143 28.0729C31.6556 28.3211 32.0668 28.3389 32.3171 28.1172C32.4243 28.0374 33.1126 26.6012 33.8634 24.9256L35.2132 21.8935H36.5539C37.85 21.8935 37.8947 21.8846 38.1003 21.6718C38.3953 21.3881 38.3953 20.9803 38.1003 20.6966C37.8858 20.475 37.8679 20.475 36.1964 20.475C34.7126 20.475 34.4802 20.4927 34.3193 20.6257C34.212 20.7143 33.7025 21.7516 33.1752 22.9308C32.6478 24.1188 32.1919 25.0851 32.1651 25.0851C32.1294 25.0851 31.5662 22.3811 30.9048 19.0742C29.5908 12.5579 29.6266 12.6732 29.0456 12.6732C28.4735 12.6732 28.4824 12.6643 27.1953 17.4518C26.5338 19.9076 25.9796 21.929 25.9618 21.9467C25.9528 21.9644 25.4791 21.0512 24.916 19.9342C24.3528 18.8082 23.8076 17.833 23.7092 17.7621C23.6109 17.6911 23.4322 17.6379 23.2981 17.6379C22.7707 17.6379 22.7439 17.7089 21.6534 21.7516C21.0903 23.8439 20.6165 25.5728 20.5897 25.5905C20.5539 25.626 20.5808 25.7767 19.2042 18.2674C18.3372 13.5243 18.221 12.9834 18.0333 12.8327C17.7919 12.6377 17.4255 12.6288 17.1752 12.8061Z" fill="#295597"/>
<path d="M36.1778 34.0686C35.7399 34.2104 34.989 34.9729 34.8549 35.425C34.6047 36.2584 34.7834 36.9233 35.4181 37.5439C36.3298 38.4571 37.5901 38.4394 38.4393 37.4996C39.2706 36.5864 39.2438 35.4782 38.3678 34.6182C37.7421 33.9888 37.0091 33.8115 36.1778 34.0686ZM37.3845 35.5935C37.8315 36.0279 37.5186 36.7903 36.8929 36.7903C36.5264 36.7903 36.1778 36.4446 36.1778 36.0811C36.1778 35.7176 36.5264 35.3718 36.8929 35.3718C37.0628 35.3718 37.2505 35.4516 37.3845 35.5935Z" fill="#295597"/>
<path d="M9.22932 35.5922C9.08631 35.7252 9.00586 35.9114 9.00586 36.0798C9.00586 36.2483 9.08631 36.4344 9.22932 36.5674L9.44385 36.7891H11.8662H14.2885L14.5031 36.5674C14.6461 36.4344 14.7265 36.2483 14.7265 36.0798C14.7265 35.9114 14.6461 35.7252 14.5031 35.5922L14.2885 35.3705H11.8662H9.44385L9.22932 35.5922Z" fill="#295597"/>
<path d="M17.8094 35.5922C17.6664 35.7252 17.5859 35.9114 17.5859 36.0798C17.5859 36.2483 17.6664 36.4344 17.8094 36.5674L18.0239 36.7891H20.4463H22.8686L23.0831 36.5674C23.2262 36.4344 23.3066 36.2483 23.3066 36.0798C23.3066 35.9114 23.2262 35.7252 23.0831 35.5922L22.8686 35.3705H20.4463H18.0239L17.8094 35.5922Z" fill="#295597"/>
<path d="M26.3914 35.5922C26.2484 35.7252 26.168 35.9114 26.168 36.0798C26.168 36.2483 26.2484 36.4344 26.3914 36.5674L26.606 36.7891H29.0283H31.4507L31.6652 36.5674C31.8082 36.4344 31.8886 36.2483 31.8886 36.0798C31.8886 35.9114 31.8082 35.7252 31.6652 35.5922L31.4507 35.3705H29.0283H26.606L26.3914 35.5922Z" fill="#295597"/>
</svg>
