<svg width="48" height="48" viewBox="0 0 48 48" fill="none" xmlns="http://www.w3.org/2000/svg">
<path d="M37.1604 4.14392C36.8023 4.30807 36.5454 4.56602 36.4287 4.87869C36.3742 5.01938 36.343 6.08245 36.343 7.83337C36.343 9.33416 36.3197 10.5614 36.2963 10.5614C36.2652 10.5614 36.0316 10.3738 35.7669 10.1471C32.5362 7.32529 28.9862 5.81668 24.7435 5.47275C21.6684 5.23043 18.0406 5.94956 15.2069 7.38C10.8785 9.55302 7.42975 13.5629 5.95061 18.1279C5.41345 19.785 5.1799 20.9809 5.03977 22.7787C4.91521 24.4124 5.06313 24.9049 5.77156 25.2488C6.5734 25.6396 7.51538 25.2644 7.7645 24.4515C7.80343 24.3108 7.85792 23.7636 7.88127 23.2243C8.02919 20.0664 9.15022 16.9866 11.112 14.4071C12.0851 13.1174 13.8601 11.515 15.2692 10.6473C18.6946 8.54468 22.7349 7.82555 26.643 8.61503C28.8228 9.06058 31.057 10.0689 32.8631 11.429C33.6806 12.0465 35.0896 13.3284 35.0196 13.3988C34.9962 13.4144 33.5794 13.8991 31.8667 14.4697C30.154 15.0403 28.6281 15.5718 28.4802 15.6578C27.6083 16.1346 27.5616 17.4791 28.3946 18.0262C29.0096 18.4327 28.8928 18.464 33.8051 16.8147C36.2652 15.9939 38.3982 15.2435 38.5384 15.1497C38.6785 15.0559 38.8731 14.8214 38.9743 14.626L39.1456 14.2821V9.70154C39.1456 5.43367 39.13 5.10537 38.9977 4.81615C38.8264 4.44096 38.6551 4.27681 38.2659 4.11266C37.8922 3.95633 37.5419 3.96414 37.1604 4.14392Z" fill="#295597"/>
<path d="M39.9644 22.7281C39.3261 23.0642 39.1782 23.4316 39.1159 24.7839C38.9757 27.934 37.8469 31.0215 35.8851 33.601C34.912 34.8907 33.137 36.4932 31.728 37.3608C28.3026 39.4635 24.2856 40.1826 20.3464 39.3931C18.5559 39.0336 16.3994 38.1346 14.8658 37.1028C13.7759 36.3681 11.8608 34.711 11.9854 34.6093C12.0009 34.5859 13.4178 34.1091 15.1305 33.5385C16.8432 32.9679 18.369 32.4363 18.5169 32.3503C19.3888 31.8735 19.4356 30.5291 18.6026 29.9819C17.9876 29.5754 18.1043 29.5442 13.192 31.1935C10.732 32.0142 8.59892 32.7646 8.45879 32.8584C8.31866 32.9522 8.12404 33.1867 8.03062 33.3821L7.85156 33.7261V38.3066V42.8871L8.02283 43.2311C8.51328 44.2003 9.79001 44.2629 10.4517 43.364C10.6074 43.1529 10.6152 43.0435 10.6386 40.292C10.6464 38.7287 10.6775 37.4468 10.7086 37.4468C10.732 37.4468 10.9655 37.6344 11.2302 37.8611C14.461 40.6829 18.0109 42.1915 22.2537 42.5354C25.3288 42.7777 28.9565 42.0586 31.7902 40.6281C36.1187 38.4551 39.5674 34.4452 41.0465 29.8803C41.5837 28.2232 41.8172 27.0272 41.9574 25.2294C42.0508 23.9787 42.0041 23.541 41.7083 23.1346C41.3813 22.6656 40.4782 22.4545 39.9644 22.7281Z" fill="#295597"/>
</svg>
