<svg width="24" height="25" viewBox="0 0 24 25" fill="none" xmlns="http://www.w3.org/2000/svg">
<path d="M11.2279 1.74757C8.82322 2.12725 6.99509 4.021 6.70447 6.42569C6.42322 8.746 7.89509 12.1351 9.81228 13.5788C11.181 14.6101 12.5357 14.6757 13.9045 13.7851C15.606 12.6788 17.0638 10.0257 17.3029 7.60225C17.5701 4.93038 15.906 2.54913 13.281 1.85069C12.9951 1.771 12.7467 1.74757 12.142 1.73819C11.7154 1.72882 11.3076 1.7335 11.2279 1.74757Z" fill="#295597"/>
<path d="M7.80525 13.609C7.48181 13.6512 6.67556 13.8715 6.30525 14.0215C4.62713 14.7012 3.27713 16.1074 2.67713 17.809C2.41463 18.559 2.32557 19.084 2.33025 19.9512C2.33025 20.5934 2.34432 20.7855 2.42869 21.0902C2.76619 22.3324 3.60525 22.9465 5.28806 23.1949C5.87869 23.284 18.1224 23.284 18.7131 23.1949C20.4006 22.9465 21.2349 22.3324 21.5724 21.0902C21.7178 20.5559 21.7178 19.3746 21.5724 18.6996C21.2959 17.4246 20.7334 16.3605 19.8568 15.4746C19.2053 14.8137 18.5584 14.3777 17.7381 14.0402C17.3162 13.8668 16.5381 13.6559 16.1256 13.5996L15.9146 13.5762L15.8303 13.8059C15.7881 13.9324 15.6615 14.1668 15.5537 14.3262C15.2912 14.7199 14.4146 15.6246 13.6693 16.2715C12.9474 16.8902 12.0568 17.6074 12.0006 17.6074C11.9771 17.6074 11.6678 17.373 11.3115 17.0871C9.50213 15.6246 8.40994 14.4902 8.17088 13.8059C8.11931 13.6605 8.06306 13.5809 8.01619 13.5809C7.97869 13.5855 7.88494 13.5996 7.80525 13.609ZM17.4568 17.6355C17.4709 17.6777 17.4849 17.9496 17.4849 18.2449V18.7793H18.0193C18.3146 18.7793 18.5865 18.7934 18.6287 18.8074C18.7412 18.8496 18.7412 20.0684 18.6287 20.1105C18.5865 20.1246 18.3146 20.1387 18.0193 20.1387H17.4849V20.6871C17.4849 20.9918 17.4662 21.2684 17.4474 21.3012C17.4146 21.3434 17.2506 21.3574 16.7771 21.348L16.149 21.334L16.1349 20.734L16.1209 20.1387H15.5396C15.0099 20.1387 14.9537 20.1293 14.9068 20.0496C14.8834 19.998 14.8599 19.7309 14.8599 19.459C14.8599 19.1871 14.8834 18.9199 14.9068 18.8684C14.9537 18.7887 15.0099 18.7793 15.5396 18.7793H16.1256V18.2027C16.1256 17.884 16.1396 17.6074 16.1584 17.5934C16.1724 17.5746 16.4678 17.5605 16.8099 17.5605C17.3303 17.5605 17.4334 17.5699 17.4568 17.6355Z" fill="#295597"/>
</svg>
