<svg width="24" height="24" viewBox="0 0 24 24" fill="none" xmlns="http://www.w3.org/2000/svg">
<g clip-path="url(#clip0_2769_73479)">
<path d="M21.5436 0.101819C21.3671 0.164701 21.1236 0.296751 20.9958 0.384785C20.8679 0.479107 18.4209 2.9692 15.56 5.93091L10.3555 11.3073L11.7129 12.7032L13.0642 14.1055L18.3905 8.60336C22.2497 4.61669 23.7532 3.0258 23.8506 2.81829C24.0515 2.40327 24.0515 1.51665 23.8506 1.13307C23.3819 0.227582 22.3958 -0.212587 21.5436 0.101819ZM22.3471 1.74931C22.408 1.81848 22.4567 1.9631 22.4567 2.07C22.4567 2.23978 22.1949 2.53532 20.2105 4.58525C17.8122 7.05648 17.8183 7.05019 17.5018 6.79238C17.4104 6.71064 17.3678 6.60374 17.3678 6.47169C17.3678 6.28304 17.5809 6.0441 19.614 3.94386C21.5923 1.90022 21.8845 1.62354 22.0488 1.62354C22.1584 1.62354 22.2801 1.67385 22.3471 1.74931Z" fill="#295597"/>
<path d="M9.11666 12.5905C8.80621 12.9112 8.55664 13.2319 8.55664 13.2948C8.55664 13.4583 10.9854 15.9609 11.1437 15.9609C11.2228 15.9609 11.4967 15.7283 11.8619 15.3447L12.4524 14.7348L11.1254 13.3639C10.401 12.6157 9.77407 11.9994 9.73754 11.9994C9.70102 11.9994 9.42101 12.2635 9.11666 12.5905Z" fill="#295597"/>
<path d="M4.1575 18.9025C0.121737 23.0715 -0.0852251 23.2979 0.018256 23.3985C0.0791272 23.4551 0.286089 23.5746 0.47479 23.6626C1.52178 24.1594 3.12878 24.1028 4.2975 23.5243C4.7236 23.3168 4.87578 23.1722 6.46452 21.531L8.18109 19.764L8.21761 18.8522L8.25414 17.9404L9.11851 17.0475L9.98897 16.1483L9.19764 15.3309L8.40631 14.5134L4.1575 18.9025Z" fill="#295597"/>
</g>
<defs>
<clipPath id="clip0_2769_73479">
<rect width="24" height="24" fill="white"/>
</clipPath>
</defs>
</svg>
