<svg width="20" height="20" viewBox="0 0 20 20" fill="none" xmlns="http://www.w3.org/2000/svg">
<path d="M0.0680818 0.105469C0.10813 0.167969 1.86224 2.65625 3.96477 5.64453C6.06729 8.63281 7.78936 11.0938 7.78936 11.1133C7.78936 11.1367 6.06329 13.1133 3.94875 15.5117C1.83821 17.9062 0.0841011 19.8984 0.0520626 19.9336C0 19.9961 0.0560674 20 0.877054 20H1.75811L5.1582 16.1445C7.02845 14.0273 8.57831 12.2852 8.59834 12.2812C8.62236 12.2734 9.86386 14.0078 11.3577 16.1328L14.0769 20H17.0565C19.8799 20 20.0321 19.9961 19.996 19.9297C19.976 19.8945 18.1538 17.3047 15.9512 14.1797C13.7485 11.0547 11.9424 8.48828 11.9424 8.47656C11.9424 8.46094 13.6164 6.55469 15.6628 4.23828L19.3793 0.0195312L18.5183 0.0078125C17.8094 0 17.6452 0.0078125 17.5931 0.0546875C17.5571 0.0859375 16.0953 1.73828 14.3452 3.72266C12.5951 5.71094 11.1494 7.32812 11.1334 7.32031C11.1174 7.30859 9.94796 5.66016 8.53426 3.65234L5.96317 0H2.97958H0L0.0680818 0.105469ZM11.3416 9.98438C14.7657 14.7656 17.5771 18.6914 17.5811 18.7148C17.5931 18.7383 17.1086 18.7461 16.2435 18.7422L14.8899 18.7305L8.6504 10.0273C5.21827 5.23828 2.4109 1.3125 2.4109 1.30469C2.4109 1.29688 3.01963 1.28906 3.76453 1.28906L5.11415 1.29297L11.3416 9.98438Z" fill="white"/>
</svg>
