<svg width="76" height="76" viewBox="0 0 76 76" fill="none" xmlns="http://www.w3.org/2000/svg">
<g clip-path="url(#clip0_2054_12621)">
<path d="M34.8633 1.08789C34.585 1.11719 33.7207 1.21973 32.959 1.29297C28.125 1.82031 22.7783 3.63672 18.457 6.21484C12.9639 9.49609 8.49609 13.9639 5.21484 19.457C2.65137 23.7344 0.952148 28.7148 0.263672 33.959C0.0292969 35.7607 0.0292969 41.2393 0.263672 43.041C1.46484 52.167 5.47852 59.8867 12.2754 66.2002C16.0254 69.7012 20.6982 72.4258 25.7812 74.0957C29.7949 75.4287 32.9736 75.9121 37.5 75.9121C40.8398 75.9121 42.3193 75.7803 45.2637 75.1797C55.3564 73.1143 64.3652 66.6396 69.7851 57.543C72.3486 53.2656 74.0478 48.2852 74.7363 43.041C74.9707 41.2393 74.9707 35.7607 74.7363 33.959C74.0478 28.7148 72.3486 23.7344 69.7851 19.457C66.5039 13.9639 62.0361 9.49609 56.543 6.21484C52.3096 3.68066 47.2559 1.95215 42.1875 1.29297C40.8984 1.11719 35.7715 0.985352 34.8633 1.08789ZM40.5029 5.54102C49.043 6.33203 57.29 10.624 62.7246 17.1133C69.8584 25.624 72.2754 36.6982 69.3457 47.3916C68.2178 51.5078 66.2256 55.4482 63.5156 58.8906C63.0176 59.5205 62.5928 60.0332 62.5488 60.0332C62.5049 60.0332 62.2705 59.4033 62.0361 58.627C60.791 54.4668 57.8906 49.999 54.5361 47.0547C52.4268 45.209 49.541 43.4365 46.9482 42.3818L46.3623 42.1475L46.875 41.7666C47.7978 41.0781 50.0391 38.7197 50.581 37.8701C52.6611 34.6328 53.54 31.1318 53.1738 27.5576C52.6318 22.1963 49.4971 17.582 44.751 15.1064C34.8779 9.97949 22.9541 16.4395 21.8262 27.5576C21.5332 30.4434 22.0898 33.4756 23.3789 36.0391C24.4189 38.1045 26.1475 40.2432 27.8467 41.5322C28.2422 41.8252 28.5644 42.1182 28.5644 42.1621C28.5644 42.2061 28.0811 42.4258 27.4951 42.6602C23.54 44.2568 19.585 47.3623 16.8164 51.0244C15.2197 53.1484 13.6963 56.1367 12.9492 58.6416C12.7295 59.4033 12.4951 60.0332 12.4512 60.0332C12.334 60.0332 10.6641 57.8652 9.8291 56.6201C8.90625 55.2432 7.28027 52.0791 6.62109 50.3945C5.47852 47.4941 4.76074 44.1396 4.51172 40.5068C3.75 30.0039 8.48144 19.3398 16.8018 12.7041C23.5254 7.34277 32.0508 4.76465 40.5029 5.54102ZM40.5762 18.1387C44.3408 19.208 47.2851 22.1523 48.4277 25.9756C48.9404 27.7188 48.9697 30.209 48.5156 31.9229C47.1533 37.0059 42.7295 40.4043 37.5 40.4043C32.2705 40.4043 27.8467 37.0059 26.4844 31.9229C26.0303 30.209 26.0596 27.7188 26.5723 25.9756C27.8613 21.6396 31.2012 18.6953 35.8887 17.7871C36.7383 17.626 39.5068 17.8311 40.5762 18.1387ZM40.5029 45.2529C45.0439 45.8389 49.0576 47.8604 52.5293 51.3174C55.1367 53.9248 56.7773 56.5615 57.832 59.8867C58.2129 61.0732 58.8135 63.8564 58.6963 63.915C58.6816 63.9297 58.2422 64.2666 57.7148 64.6768C53.2031 68.1924 47.7685 70.4482 41.6748 71.3271C39.9756 71.5762 35.0244 71.5762 33.3252 71.3271C27.2314 70.4482 21.7969 68.1924 17.2852 64.6768C16.7578 64.2666 16.3184 63.9297 16.3037 63.915C16.2744 63.9004 16.3623 63.3438 16.4795 62.6846C17.8125 55.1113 23.2324 48.7686 30.5566 46.2197C33.7939 45.0918 36.8701 44.7842 40.5029 45.2529Z" fill="#295597"/>
</g>
<defs>
<clipPath id="clip0_2054_12621">
<rect width="75" height="76" fill="white" transform="translate(0.5)"/>
</clipPath>
</defs>
</svg>
