<svg width="20" height="20" viewBox="0 0 20 20" fill="none" xmlns="http://www.w3.org/2000/svg">
<path fill-rule="evenodd" clip-rule="evenodd" d="M17.0861 2.90629C16.1616 1.98132 15.0633 1.24835 13.8543 0.749576C12.6454 0.2508 11.3497 -0.00393143 10.0419 4.58658e-05C4.55356 4.58658e-05 0.0857141 4.44557 0.083482 9.91074C0.081054 11.651 0.539774 13.3608 1.41294 14.8661L0 20L5.27901 18.6219C6.74026 19.4135 8.37603 19.8278 10.0379 19.8272H10.0419C15.5299 19.8272 19.9973 15.3813 20 9.91654C20.0033 8.61322 19.7474 7.32225 19.2472 6.11875C18.7469 4.91525 18.0123 3.82325 17.0861 2.90629ZM10.0419 18.1545H10.0384C8.55685 18.1549 7.10227 17.7584 5.82588 17.0063L5.52365 16.8277L2.39107 17.6455L3.22723 14.6058L3.03035 14.2933C2.20195 12.9818 1.76305 11.462 1.76473 9.91074C1.76473 5.36923 5.47946 1.67415 10.0451 1.67415C12.2352 1.67024 14.3373 2.53644 15.8889 4.08223C17.4404 5.62803 18.3145 7.72682 18.3187 9.91699C18.3169 14.4589 14.604 18.1545 10.0419 18.1545ZM14.5817 11.9853C14.333 11.8612 13.1085 11.2621 12.8817 11.1795C12.6549 11.0969 12.4875 11.0554 12.3219 11.3036C12.1562 11.5518 11.679 12.1072 11.5339 12.2746C11.3888 12.442 11.2437 12.4603 10.9951 12.3362C10.7464 12.2121 9.94418 11.9509 8.99374 11.1072C8.25401 10.4505 7.7549 9.63976 7.60981 9.39199C7.46472 9.14422 7.59418 9.00985 7.71874 8.88663C7.83079 8.77547 7.9674 8.59735 8.09195 8.4527C8.21651 8.30806 8.25802 8.20449 8.34061 8.03931C8.4232 7.87413 8.38213 7.72949 8.32008 7.60583C8.25802 7.48217 7.76026 6.26298 7.55311 5.767C7.35088 5.28396 7.14597 5.34959 6.99329 5.342C6.8482 5.33486 6.68079 5.33307 6.51606 5.33307C6.39013 5.33635 6.26622 5.36555 6.15208 5.41886C6.03794 5.47216 5.93602 5.54843 5.85267 5.64289C5.62455 5.8911 4.98169 6.4911 4.98169 7.70896C4.98169 8.92681 5.87454 10.1054 5.99776 10.2706C6.12097 10.4357 7.75222 12.9371 10.2482 14.0098C10.7117 14.2083 11.1852 14.3824 11.6669 14.5313C12.2629 14.7197 12.8053 14.6933 13.2339 14.6295C13.712 14.5585 14.7071 14.0304 14.9138 13.4518C15.1205 12.8732 15.121 12.3777 15.0589 12.2746C14.9969 12.1714 14.8308 12.1089 14.5817 11.9853Z" fill="white"/>
</svg>
